<svg 
    version="1.1"
    baseProfile="full"
    width="200" height="200"
    xmlns="http://www.w3.org/2000/svg"
>
    <rect width="100%" height="100%" fill="transparent"/>

    <defs>
        <linearGradient id="logo-txt-color" x1="0%" y1="0%" x2="100%" y2="100%">
            <stop offset="0%" style="stop-color:#f9b0c3;stop-opacity:1"/>
            <stop offset="50%" style="stop-color:#f4828e;stop-opacity:1"/>
            <stop offset="100%" style="stop-color:#f9b0c3;stop-opacity:1"/>
        </linearGradient>

        <radialGradient id="logo-bottom-img-color" cx="50%" cy="50%" r="50%" fx="50%" fy="50%">
            <stop offset="0%" style="stop-color:#fff9fb;stop-opacity:0"/>
            <stop offset="100%" style="stop-color:#ffdce3;stop-opacity:1"/>
        </radialGradient>
    </defs>

    <defs>
        <filter id="circle-shadow" x="0" y="0" width="200%" height="200%">
        <feOffset result="offOut" in="SourceGraphic" dx="20" 
    dy="20" />
        <feGaussianBlur result="blurOut" in="offOut" 
    stdDeviation="10" />
        <feBlend in="SourceGraphic" in2="blurOut" 
    mode="normal" />
        </filter>
    </defs>
   
    <circle cx="100" cy="70" r="36" style="fill:url(#logo-bottom-img-color)" filter="url(#circle-shadow)" />

    <text x="100" y="140" style="font-size:36;letter-spacing:2;font-family: Comic Sans MS;fill:url(#logo-txt-color)" text-anchor="middle">W♪th Me</text>
    <text x="100" y="156" style="font-size:8;letter-spacing:4;stroke:#e93347; stroke-width: 0.5" text-anchor="middle" fill="#f3828e">和我一起听音乐吧</text>
    
    <!-- 音符 图层有层叠顺序 -->
    <path d="m98.836588,88.881561c-3.888265,-0.414689 -5.987685,-4.291129 -2.102511,-5.711133c4.050199,-1.400143 6.459019,3.584314 2.034926,4.07151c-2.422502,0.608893 3.145229,1.628563 4.182956,0.604714c3.242529,-1.052986 2.741638,-3.793601 1.961503,-5.723735c-0.270738,-1.478673 -0.609313,-3.061722 -3.390026,-2.221345c-6.708698,0.36214 -12.019972,-4.204118 -11.486481,-8.475836c0.181122,-4.02918 5.10024,-6.788831 8.742726,-9.586804c-1.195837,-3.660449 -1.556909,-7.889271 1.909708,-11.079073c3.193158,-2.592958 4.813928,2.151944 5.354064,3.762016c1.199781,3.763541 -1.192482,7.718424 -5.173164,10.371401c0.380095,1.258413 0.754077,2.517667 1.14143,3.775085c4.206577,-0.5449 8.221948,1.83991 8.451387,4.633266c0.649983,2.522443 -1.761443,4.904571 -5.055207,5.988645c-0.054161,2.166052 1.729747,4.412897 1.088764,6.649658c-0.615569,2.312612 -4.481216,3.446651 -7.660074,2.94163l-0.000002,0zm4.391524,-9.868535c1.191791,-1.500961 -0.96995,-4.151766 -1.088639,-6.078436c0.04668,-3.3597 -5.26501,0.650807 -3.685428,2.300677c0.468236,0.976268 4.532441,2.766591 0.799147,1.662427c-3.897658,-1.565107 -3.719136,-5.592047 -0.157796,-7.292342c2.987837,-0.444032 1.16298,-3.119056 0.599997,-3.997705c-3.6697,2.243832 -7.829146,5.069265 -7.196267,8.700924c0.476726,3.403937 6.007554,5.468877 10.728987,4.704457l0,-0.000001zm2.469131,-0.649729c3.500026,-1.50751 3.385161,-5.463863 -0.444122,-6.690938c-4.085865,-1.448506 -1.287308,2.346337 -1.212443,3.790789c0.567034,0.552955 0.245832,3.774957 1.656565,2.900149zm-4.313591,-18.135077c2.152959,-1.747409 4.614024,-4.270127 3.102012,-6.580433c-3.25611,-1.442061 -5.065555,2.456753 -5.145634,4.163958c-0.029623,1.10699 -0.272775,4.922596 2.043624,2.416476l0,0l-0.000002,0z" fill="#ffaaaa" id="svg_14" stroke="#f4828e" stroke-dasharray="null" stroke-linecap="null" stroke-linejoin="null"/>
</svg>